<svg width="20" height="19" viewBox="0 0 20 19" fill="none" xmlns="http://www.w3.org/2000/svg">
<path d="M14.6968 2.50003C13.4748 2.44003 12.0178 3.01003 10.8068 4.66003L10.0018 5.75003L9.19582 4.66003C7.98382 3.01003 6.52582 2.44003 5.30382 2.50003C4.06082 2.57003 2.95482 3.28003 2.39382 4.41003C1.84182 5.53003 1.76082 7.19003 2.87282 9.23003C3.94682 11.2 6.12982 13.5 10.0018 15.84C13.8718 13.5 16.0538 11.2 17.1278 9.23003C18.2388 7.19003 18.1578 5.53003 17.6048 4.41003C17.0438 3.28003 15.9388 2.57003 14.6968 2.50003ZM18.8838 10.19C17.5328 12.67 14.8828 15.31 10.5048 17.86L10.0018 18.16L9.49782 17.86C5.11882 15.31 2.46882 12.67 1.11582 10.19C-0.244179 7.69003 -0.294179 5.33003 0.601821 3.52003C1.48882 1.73003 3.24882 0.610027 5.20282 0.510027C6.85382 0.420027 8.57082 1.07003 10.0008 2.52003C11.4298 1.07003 13.1468 0.420027 14.7968 0.510027C16.7508 0.610027 18.5108 1.73003 19.3978 3.52003C20.2938 5.33003 20.2438 7.69003 18.8838 10.19Z" fill="#EC2525"/>
</svg>
